<svg width="0" height="0" class="hidden">
  <symbol xmlns="http://www.w3.org/2000/svg" viewBox="0 0 64 64" id="gitlab">
    <title>Logo Gitlab</title>
    <path d="M32 61.477L43.784 25.2H20.216z" fill="#e24329"/>
    <path d="M32 61.477L20.216 25.2H3.7z" fill="#fc6d26"/>
    <path d="M3.7 25.2L.12 36.23a2.44 2.44 0 00.886 2.728L32 61.477z" fill="#fca326"/>
    <path d="M3.7 25.2h16.515L13.118 3.366c-.365-1.124-1.955-1.124-2.32 0z" fill="#e24329"/>
    <path d="M32 61.477L43.784 25.2H60.3z" fill="#fc6d26"/>
    <path d="M60.3 25.2l3.58 11.02a2.44 2.44 0 01-.886 2.728L32 61.477z" fill="#fca326"/>
    <path d="M60.3 25.2H43.784l7.098-21.844c.365-1.124 1.955-1.124 2.32 0z" fill="#e24329"/>
  </symbol>
  <symbol xmlns="http://www.w3.org/2000/svg" viewBox="0 0 512 512" id="github" fill="currentColor">
    <title>Logo Github</title>
    <path d="M256 32C132.3 32 32 134.9 32 261.7c0 101.5 64.2 187.5 153.2 217.9a17.56 17.56 0 003.8.4c8.3 0 11.5-6.1 11.5-11.4 0-5.5-.2-19.9-.3-39.1a102.4 102.4 0 01-22.6 2.7c-43.1 0-52.9-33.5-52.9-33.5-10.2-26.5-24.9-33.6-24.9-33.6-19.5-13.7-.1-14.1 1.4-14.1h.1c22.5 2 34.3 23.8 34.3 23.8 11.2 19.6 26.2 25.1 39.6 25.1a63 63 0 0025.6-6c2-14.8 7.8-24.9 14.2-30.7-49.7-5.8-102-25.5-102-113.5 0-25.1 8.7-45.6 23-61.6-2.3-5.8-10-29.2 2.2-60.8a18.64 18.64 0 015-.5c8.1 0 26.4 3.1 56.6 24.1a208.21 208.21 0 01112.2 0c30.2-21 48.5-24.1 56.6-24.1a18.64 18.64 0 015 .5c12.2 31.6 4.5 55 2.2 60.8 14.3 16.1 23 36.6 23 61.6 0 88.2-52.4 107.6-102.3 113.3 8 7.1 15.2 21.1 15.2 42.5 0 30.7-.3 55.5-.3 63 0 5.4 3.1 11.5 11.4 11.5a19.35 19.35 0 004-.4C415.9 449.2 480 363.1 480 261.7 480 134.9 379.7 32 256 32z"></path>
  </symbol>
  <symbol xmlns="http://www.w3.org/2000/svg" viewBox="0 0 512 512" id="dropbox" fill="currentColor">
    <title>Logo Dropbox</title>
    <path d="M256.32 126.24l-120.16 78.25 120.16 78.24L136.16 361 16 282.08l120.16-78.24L16 126.24 136.16 48zm-120.8 259.52l120.16-78.25 120.16 78.25L255.68 464zm120.8-103.68l120.16-78.24-120.16-77.6L375.84 48 496 126.24l-120.16 78.25L496 282.73 375.84 361z"></path>
  </symbol>
  <symbol viewBox="0 0 24 24" xmlns="http://www.w3.org/2000/svg" id="bitbucket" fill="currentColor">
    <path d="M.778 1.213a.768.768 0 00-.768.892l3.263 19.81c.084.5.515.868 1.022.873H19.95a.772.772 0 00.77-.646l3.27-20.03a.768.768 0 00-.768-.891zM14.52 15.53H9.522L8.17 8.466h7.561z"/>
  </symbol>
</svg>
