<svg xmlns="http://www.w3.org/2000/svg" fill="none" width="125" height="99" viewBox="0 0 312 247">
    <path fill="#000000"
          d="M285.548 129.735V77.843h-25.952v-25.95h-25.971V38.921h25.971V0h-38.937v25.941h-25.971v25.951h-77.876v-25.95H90.861V0H51.923v38.922h25.952v12.97H51.923v25.951H25.971v51.892H0v90.814h38.938v-51.892h12.985v51.892h25.952V246.5h64.909v-38.922H90.861v-12.97h129.798v12.97h-51.923V246.5h64.889v-25.951h25.971v-51.892h12.966v51.892H311.5v-90.814h-25.952Zm-168.736-12.97H77.875V77.843h38.937v38.922Zm116.813 0h-38.937V77.843h38.937v38.922Z"/>
</svg>
