<svg width="256" height="256" viewBox="0 0 256 256" fill="none" xmlns="http://www.w3.org/2000/svg">
<rect width="256" height="256" fill="url(#paint0_linear_0_1)"/>
<path d="M199.67 131.841V101.106H185.341V85.7353H171V70.3648H185.341V55H163.841V70.3648H149.5V85.7353H106.5V70.3648H92.1702V55H70.6703V70.3648H85V85.7353H70.6703V101.106H56.3405V131.841H42V185.629H58.125V156.816H74.25V185.632L85 185.629V201H117.25V179.869H90.375V162.579H128H165.625V179.869H138.75V201H171V185.629L181.75 185.632V156.816H197.875V185.632L214 185.629V131.841H199.67ZM111.875 128H85V101.106H111.875V128ZM176.375 128H149.5V101.106H176.375V128Z" fill="#181926"/>
<defs>
<linearGradient id="paint0_linear_0_1" x1="128" y1="0" x2="128" y2="256" gradientUnits="userSpaceOnUse">
<stop offset="0.145" stop-color="#C6A0F6"/>
<stop offset="0.965" stop-color="#DEAFEE"/>
<stop offset="1" stop-color="#F0C6C6"/>
</linearGradient>
</defs>
</svg>
